# xmcd
#
# Track frame offsets:
#	150
#	13361
#	28306
#	43457
#	54991
#	72465
#	85426
#	100204
#	121973
#	144290
#	159559
#	174924
#	191197
#	200522
#	213234
#	231806
#	251081
#	273527
#	289375
#	310074
#
# Disc length: 4466 seconds
# Revision: 0
# Processed by: cddbd v1.5.2PL0 Copyright (c) Steve Scherf et al.
# Submitted via: dBpowerAMP V12.0
#
DISCID=36117014
DTITLE=Various Artist - 100 Hits - Soul [CD 2-5)
DYEAR=2007
DGENRE=Soul
TTITLE0=Ben E. King - Stand by Me
TTITLE1=Otis Redding - Try a Little Tenderness
TTITLE2=The Delfonics - Didn't I (Blow Your Mind This Time)
TTITLE3=Erma Franklin - Piece of My Heart
TTITLE4=Brook Benton - Rainy Night in Georgia
TTITLE5=Percy Sledge - When a Man Loves a Woman
TTITLE6=Al Green - Let's Stay Together
TTITLE7=Heatwave - Always and Forever
TTITLE8=The Isley Brothers - Between the Sheets
TTITLE9=The Persuaders - Thin Line Between Love and Hate
TTITLE10=Harold Melvin and the Blue Notes - If You Don't Know Me by Now
TTITLE11=Billy Paul - Me and Mrs. Jones
TTITLE12=Bill Withers - Ain't No Sunshine
TTITLE13=Deniece Williams - Free
TTITLE14=Marvin Gaye - Sexual Healing
TTITLE15=Rose Royce - Ooh Boy
TTITLE16=Teddy Pendergrass - Love TKO
TTITLE17=Dionne Warwick - All the Love in the World
TTITLE18=Phyllis Nelson - Move Closer
TTITLE19=Major Harris - Love Won't Let Me Wait
EXTD=
EXTT0=
EXTT1=
EXTT2=
EXTT3=
EXTT4=
EXTT5=
EXTT6=
EXTT7=
EXTT8=
EXTT9=
EXTT10=
EXTT11=
EXTT12=
EXTT13=
EXTT14=
EXTT15=
EXTT16=
EXTT17=
EXTT18=
EXTT19=
PLAYORDER=
